<svg id="visual" viewBox="0 0 960 300" width="960" height="300" xmlns="http://www.w3.org/2000/svg" xmlns:xlink="http://www.w3.org/1999/xlink" version="1.1"><rect x="0" y="0" width="960" height="300" fill="#111827"></rect><path d="M0 64L22.8 74C45.7 84 91.3 104 137 110.7C182.7 117.3 228.3 110.7 274 105C319.7 99.3 365.3 94.7 411.2 89.8C457 85 503 80 548.8 86.5C594.7 93 640.3 111 686 109C731.7 107 777.3 85 823 86.3C868.7 87.7 914.3 112.3 937.2 124.7L960 137L960 301L937.2 301C914.3 301 868.7 301 823 301C777.3 301 731.7 301 686 301C640.3 301 594.7 301 548.8 301C503 301 457 301 411.2 301C365.3 301 319.7 301 274 301C228.3 301 182.7 301 137 301C91.3 301 45.7 301 22.8 301L0 301Z" fill="#1f2937"></path><path d="M0 117L22.8 119.8C45.7 122.7 91.3 128.3 137 126C182.7 123.7 228.3 113.3 274 109.7C319.7 106 365.3 109 411.2 119.3C457 129.7 503 147.3 548.8 149C594.7 150.7 640.3 136.3 686 125.7C731.7 115 777.3 108 823 108.5C868.7 109 914.3 117 937.2 121L960 125L960 301L937.2 301C914.3 301 868.7 301 823 301C777.3 301 731.7 301 686 301C640.3 301 594.7 301 548.8 301C503 301 457 301 411.2 301C365.3 301 319.7 301 274 301C228.3 301 182.7 301 137 301C91.3 301 45.7 301 22.8 301L0 301Z" fill="#212b3a"></path><path d="M0 150L22.8 149.8C45.7 149.7 91.3 149.3 137 150.2C182.7 151 228.3 153 274 154.8C319.7 156.7 365.3 158.3 411.2 157.5C457 156.7 503 153.3 548.8 150C594.7 146.7 640.3 143.3 686 141.8C731.7 140.3 777.3 140.7 823 150.2C868.7 159.7 914.3 178.3 937.2 187.7L960 197L960 301L937.2 301C914.3 301 868.7 301 823 301C777.3 301 731.7 301 686 301C640.3 301 594.7 301 548.8 301C503 301 457 301 411.2 301C365.3 301 319.7 301 274 301C228.3 301 182.7 301 137 301C91.3 301 45.7 301 22.8 301L0 301Z" fill="#232e3e"></path><path d="M0 206L22.8 203.8C45.7 201.7 91.3 197.3 137 200.7C182.7 204 228.3 215 274 221.7C319.7 228.3 365.3 230.7 411.2 223.2C457 215.7 503 198.3 548.8 196.5C594.7 194.7 640.3 208.3 686 217.7C731.7 227 777.3 232 823 228.2C868.7 224.3 914.3 211.7 937.2 205.3L960 199L960 301L937.2 301C914.3 301 868.7 301 823 301C777.3 301 731.7 301 686 301C640.3 301 594.7 301 548.8 301C503 301 457 301 411.2 301C365.3 301 319.7 301 274 301C228.3 301 182.7 301 137 301C91.3 301 45.7 301 22.8 301L0 301Z" fill="#253142"></path><path d="M0 249L22.8 252.7C45.7 256.3 91.3 263.7 137 267.5C182.7 271.3 228.3 271.7 274 267.8C319.7 264 365.3 256 411.2 249.5C457 243 503 238 548.8 240C594.7 242 640.3 251 686 249.8C731.7 248.7 777.3 237.3 823 233C868.7 228.7 914.3 231.3 937.2 232.7L960 234L960 301L937.2 301C914.3 301 868.7 301 823 301C777.3 301 731.7 301 686 301C640.3 301 594.7 301 548.8 301C503 301 457 301 411.2 301C365.3 301 319.7 301 274 301C228.3 301 182.7 301 137 301C91.3 301 45.7 301 22.8 301L0 301Z" fill="#273446"></path></svg>