<svg id="visual" viewBox="0 0 900 450" width="900" height="450" xmlns="http://www.w3.org/2000/svg" xmlns:xlink="http://www.w3.org/1999/xlink" version="1.1"><rect x="0" y="0" width="900" height="450" fill="#111827"></rect><path d="M0 300L30 301C60 302 120 304 180 303.5C240 303 300 300 360 305C420 310 480 323 540 327.7C600 332.3 660 328.7 720 325.8C780 323 840 321 870 320L900 319L900 451L870 451C840 451 780 451 720 451C660 451 600 451 540 451C480 451 420 451 360 451C300 451 240 451 180 451C120 451 60 451 30 451L0 451Z" fill="#00d4ff"></path><path d="M0 328L30 330.5C60 333 120 338 180 337.8C240 337.7 300 332.3 360 335C420 337.7 480 348.3 540 350C600 351.7 660 344.3 720 341.5C780 338.7 840 340.3 870 341.2L900 342L900 451L870 451C840 451 780 451 720 451C660 451 600 451 540 451C480 451 420 451 360 451C300 451 240 451 180 451C120 451 60 451 30 451L0 451Z" fill="#4fdbfe"></path><path d="M0 373L30 369.3C60 365.7 120 358.3 180 353.5C240 348.7 300 346.3 360 349.2C420 352 480 360 540 361.3C600 362.7 660 357.3 720 355C780 352.7 840 353.3 870 353.7L900 354L900 451L870 451C840 451 780 451 720 451C660 451 600 451 540 451C480 451 420 451 360 451C300 451 240 451 180 451C120 451 60 451 30 451L0 451Z" fill="#72e1fd"></path><path d="M0 379L30 378C60 377 120 375 180 377.7C240 380.3 300 387.7 360 388.8C420 390 480 385 540 381C600 377 660 374 720 376.5C780 379 840 387 870 391L900 395L900 451L870 451C840 451 780 451 720 451C660 451 600 451 540 451C480 451 420 451 360 451C300 451 240 451 180 451C120 451 60 451 30 451L0 451Z" fill="#8de7fd"></path><path d="M0 408L30 406C60 404 120 400 180 399.7C240 399.3 300 402.7 360 403.3C420 404 480 402 540 400.5C600 399 660 398 720 396.7C780 395.3 840 393.7 870 392.8L900 392L900 451L870 451C840 451 780 451 720 451C660 451 600 451 540 451C480 451 420 451 360 451C300 451 240 451 180 451C120 451 60 451 30 451L0 451Z" fill="#a5eefe"></path><path d="M0 413L30 416.7C60 420.3 120 427.7 180 429.3C240 431 300 427 360 423.2C420 419.3 480 415.7 540 413.8C600 412 660 412 720 414.2C780 416.3 840 420.7 870 422.8L900 425L900 451L870 451C840 451 780 451 720 451C660 451 600 451 540 451C480 451 420 451 360 451C300 451 240 451 180 451C120 451 60 451 30 451L0 451Z" fill="#bcf4ff"></path></svg>