<svg id="visual" viewBox="0 0 960 300" width="960" height="300" xmlns="http://www.w3.org/2000/svg" xmlns:xlink="http://www.w3.org/1999/xlink" version="1.1"><rect x="0" y="0" width="960" height="300" fill="#111827"></rect><path d="M0 190L22.8 194.3C45.7 198.7 91.3 207.3 137 215.8C182.7 224.3 228.3 232.7 274 228.7C319.7 224.7 365.3 208.3 411.2 198.8C457 189.3 503 186.7 548.8 189.3C594.7 192 640.3 200 686 211C731.7 222 777.3 236 823 239.3C868.7 242.7 914.3 235.3 937.2 231.7L960 228L960 301L937.2 301C914.3 301 868.7 301 823 301C777.3 301 731.7 301 686 301C640.3 301 594.7 301 548.8 301C503 301 457 301 411.2 301C365.3 301 319.7 301 274 301C228.3 301 182.7 301 137 301C91.3 301 45.7 301 22.8 301L0 301Z" fill="#1f2937" stroke-linecap="round" stroke-linejoin="miter"></path></svg>